<svg xmlns="http://www.w3.org/2000/svg" xmlns:xlink="http://www.w3.org/1999/xlink" width="955.165" height="629.88" viewBox="0 0 955.165 629.88"><defs><style>.a{fill:url(#a);}</style><linearGradient id="a" x1="0.493" y1="0.1" x2="0.503" y2="0.819" gradientUnits="objectBoundingBox"><stop offset="0" stop-color="#004a78" stop-opacity="0.341"/><stop offset="0.437" stop-color="#450e5a" stop-opacity="0.4"/><stop offset="1" stop-color="#00223a" stop-opacity="0.4"/></linearGradient></defs><path class="a" d="M98.095,21.114C119.714,9.3,154.887-5.538,192.868,2.089c58.289,11.705,67.611,65.157,129.69,98.687,65.4,35.327,88.568-5.908,173.335,19.023,113.6,33.41,105.685,117.371,223.215,145.058,42.965,10.122,69.733,4.957,112.231,28.536,36.92,20.483,45.764,28.115,45.763,54.2s-165.789,57.648-165.789,57.648-185.679,31.111-413.769-7.513S2.217,309.222.035,218.56,98.095,21.114,98.095,21.114Z" transform="matrix(0.966, -0.259, 0.259, 0.966, 0, 227.011)"/></svg>