<svg xmlns="http://www.w3.org/2000/svg" width="593.03" height="318.027" viewBox="0 0 593.03 318.027"><defs><style>.a{fill:#fff;}</style></defs><g transform="translate(-553.079 -569.011)"><g transform="translate(553.079 793.274)"><path class="a" d="M553.079,683.841V673.459l9.2-1.78V609.707l-9.2-1.78V597.489h35.764v10.438l-9.257,1.78v60.856h24.38L604.8,659.7h13.222v24.137Z" transform="translate(-553.079 -591.323)"/><path class="a" d="M592.445,666.685q-13.885,0-22.187-8.893-8.3-8.909-8.3-22.6v-2.37q0-14.3,7.857-23.547t21.086-9.191q13,0,20.164,7.824t7.177,21.176v9.426H579.927l-.121.356a16.711,16.711,0,0,0,4.248,10.438q3.75,4.1,10.227,4.094a33.132,33.132,0,0,0,9.548-1.156,43.7,43.7,0,0,0,8.3-3.65l4.686,10.673a34.044,34.044,0,0,1-10.293,5.284A43.55,43.55,0,0,1,592.445,666.685ZM590.9,613.419a9.016,9.016,0,0,0-7.59,3.69,19.106,19.106,0,0,0-3.439,9.661l.17.3h21.232v-1.537c0-3.69-.858-6.619-2.573-8.811S594.379,613.419,590.9,613.419Z" transform="translate(-490.128 -572.922)"/><path class="a" d="M596.478,598.288V614h11.272v12.153H596.478v32.682c0,2.492.51,4.28,1.537,5.349a5.519,5.519,0,0,0,4.151,1.594,29.012,29.012,0,0,0,3.115-.146c.89-.1,1.885-.267,3-.5l1.481,12.509a40.323,40.323,0,0,1-5.753,1.336,39.763,39.763,0,0,1-6.174.445q-8.945,0-13.787-4.92t-4.831-15.6V626.155h-9.435V614h9.435V598.288Z" transform="translate(-434.616 -585.657)"/><path class="a" d="M594.832,608.055a28.924,28.924,0,0,1-3.147,12.485,34.775,34.775,0,0,1-7.647,10.7l-8.544-4.685a38.291,38.291,0,0,0,3.56-8.512,36.975,36.975,0,0,0,1.246-9.985V596.727h14.532Z" transform="translate(-394.124 -596.727)"/><path class="a" d="M628.9,623.224h-11.62l-1.836-8a15.152,15.152,0,0,0-4.475-2.379A17.934,17.934,0,0,0,605,611.9a11.624,11.624,0,0,0-7.234,2.047,6.215,6.215,0,0,0-2.67,5.122,5.827,5.827,0,0,0,2.549,4.839q2.548,1.93,10.2,3.414,11.919,2.367,17.672,6.967t5.753,12.663q0,8.667-7.444,14.144t-19.6,5.486a41.146,41.146,0,0,1-13.618-2.161,34.743,34.743,0,0,1-11-6.206l-.177-14.411h12.1l2.37,8.367a9.857,9.857,0,0,0,4.216,1.926,24.516,24.516,0,0,0,5.575.623q5.279,0,8.035-1.9a5.939,5.939,0,0,0,2.759-5.154,6.048,6.048,0,0,0-2.791-4.928q-2.78-2.075-10.26-3.673-11.337-2.307-17.106-6.853a14.852,14.852,0,0,1-5.785-12.364q0-8.059,6.643-13.909t18.918-5.834a48.668,48.668,0,0,1,14.144,2.015,30.005,30.005,0,0,1,10.47,5.154Z" transform="translate(-372.445 -572.815)"/></g><g transform="translate(853.36 807.685)"><path class="a" d="M653.506,625.582H642.032l-1.593-10.26a16.063,16.063,0,0,0-5.738-3.593,22.889,22.889,0,0,0-8.172-1.319q-10.038,0-15.463,7.3c-3.625,4.855-5.421,11.215-5.421,19.031v2.7q0,11.737,5.389,19.1,5.389,7.343,15.228,7.347a25.319,25.319,0,0,0,8.334-1.319,13.973,13.973,0,0,0,5.843-3.592l1.593-10.268h11.474v15.236a33.13,33.13,0,0,1-11.878,8.593,39.384,39.384,0,0,1-16.15,3.2q-15.512,0-25.391-10.737t-9.9-27.56v-2.589q0-16.774,9.839-27.56t25.448-10.786a38.842,38.842,0,0,1,16.126,3.245,34.7,34.7,0,0,1,11.9,8.6Z" transform="translate(-590.19 -598.508)"/><path class="a" d="M598.891,607.95v-9.3h31.888v9.3l-8.253,1.586v22.211h31.419V609.536l-8.253-1.586v-9.3h31.9v9.3l-8.253,1.586v55.273l8.253,1.594v9.249h-31.9V666.4l8.253-1.594V643.649H622.526v21.159l8.253,1.594v9.249H598.891V666.4l8.189-1.594V609.536Z" transform="translate(-528.487 -597.536)"/><path class="a" d="M609.257,666.4l5.5-.8,23.433-66.956H654L677.274,665.6l5.5.8v9.249H656.543V666.4l5.34-.962L658.5,654.864H633.539l-3.39,10.576,5.341.962v9.249H609.257ZM637.188,643.5h17.664l-8.683-27.13h-.315Z" transform="translate(-454.977 -597.536)"/><path class="a" d="M686.534,598.645v20.52H674.68l-.631-8.626H659.872v54.27l8.253,1.594v9.249H636.181V666.4l8.253-1.594v-54.27H630.314l-.639,8.626H617.886v-20.52Z" transform="translate(-393.786 -597.536)"/></g><g transform="translate(645.233 569.011)"><path class="a" d="M769.145,741.1c-1.587-1.367-3.051-2.759-4.467-4.143,14.257-12.574,22.85-28.741,22.85-46.4,0-11.579-3.779-22.478-10.333-32.188,1.157-4.378,2.225-8.852,3.26-13.246a175.558,175.558,0,0,0,4.475-33.555,14.326,14.326,0,1,0-8.7-.049c.477.154.963.211,1.448.315a86.178,86.178,0,0,1-7.371,29.955c-.825,1.845-1.8,3.463-2.718,5.171-17.964-17.5-46.388-28.87-78.487-28.87a130.583,130.583,0,0,0-31.127,3.762,86.52,86.52,0,0,1-4.961-24.492c.478-.106.963-.154,1.449-.308a14.426,14.426,0,1,0-8.706-.008,179.2,179.2,0,0,0,3.1,27.43c-34.276,11.336-58.177,36.63-58.177,66.083,0,40.02,44.066,72.458,98.424,72.458a125.507,125.507,0,0,0,49.859-10.058,65.174,65.174,0,0,0,9.322,4.426c20.681,7.752,40.319,2.452,47.869,0A95.967,95.967,0,0,1,769.145,741.1Z" transform="translate(-378.587 -569.011)"/><path class="a" d="M804.08,615.193c-21.839-27.325-62.142-45.676-108.312-45.676-69.4,0-125.66,41.412-125.66,92.509,0,22.906,11.336,43.856,30.068,60.014a139.072,139.072,0,0,1-35.707,21.887c11.012,3.786,39.688,11.951,69.885,0,.47-.186.906-.421,1.376-.615a161.734,161.734,0,0,0,60.038,11.223c30.853,0,59.076-8.213,80.939-21.807-9.88-13.642-15.495-29.218-15.495-45.757C761.212,658.563,777.734,633,804.08,615.193Z" transform="translate(-564.468 -565.422)"/></g></g></svg>